<svg xmlns="http://www.w3.org/2000/svg" width="15.59" height="13.249" viewBox="0 0 15.59 13.249">
  <g id="Group_1385" data-name="Group 1385" transform="translate(-0.899 -0.63)">
    <g id="Group_4416" data-name="Group 4416">
      <path id="Path_169" data-name="Path 169" d="M14.954,2.174A3.153,3.153,0,0,0,11.548.251C9.392.265,7.863,2.812,7.7,3.038,7.541,2.812,6.011.265,3.855.251A3.153,3.153,0,0,0,.45,2.174,5.728,5.728,0,0,0,.4,4.986c.109.355,1.379,5.1,7.3,7.984,5.923-2.889,7.193-7.63,7.3-7.984A5.728,5.728,0,0,0,14.954,2.174Z" transform="translate(0.992 0.63)" fill="none" stroke="#20535a" stroke-linecap="round" stroke-miterlimit="10" stroke-width="0.5"/>
    </g>
  </g>
</svg>
