<svg xmlns="http://www.w3.org/2000/svg" width="301.333" height="38.701" viewBox="0 0 301.333 38.701">
  <g id="Brandy_melville_US_logo" transform="translate(-6.82 -0.86)">
    <path id="Path_4286" data-name="Path 4286" d="M26.035,17.885A6.6,6.6,0,0,1,28,19.973a5.962,5.962,0,0,1,.721,3.152,6.329,6.329,0,0,1-.823,3.266,7.05,7.05,0,0,1-2.127,2.278A9.747,9.747,0,0,1,22.9,30a12.076,12.076,0,0,1-3.316.456H6.82V29.087l1.329-.165a5.063,5.063,0,0,0,1.266-.291,1.721,1.721,0,0,0,.835-.709A2.367,2.367,0,0,0,10.5,26.77V7.4a2.8,2.8,0,0,0-.215-1.139A1.658,1.658,0,0,0,9.4,5.4a5.392,5.392,0,0,0-1.266-.443,9.3,9.3,0,0,0-1.177-.19V3.48H19.4a13.076,13.076,0,0,1,2.759.291,8.2,8.2,0,0,1,2.532,1.013,5.456,5.456,0,0,1,1.848,1.81,5.063,5.063,0,0,1,.721,2.772,5.987,5.987,0,0,1-.519,2.532A5.544,5.544,0,0,1,25.3,13.809a8.4,8.4,0,0,1-2,1.266,11.734,11.734,0,0,1-2.443.81v.177a14.367,14.367,0,0,1,2.532.582,8.974,8.974,0,0,1,2.645,1.24ZM21.44,13.821a4.709,4.709,0,0,0,.975-1.785,8.519,8.519,0,0,0,.278-2.3,4.835,4.835,0,0,0-1.266-3.494,5.063,5.063,0,0,0-3.8-1.266H14.554V15.34h2.4a7.873,7.873,0,0,0,2.658-.405,4.152,4.152,0,0,0,1.772-1.114Zm2.633,8.607a5.215,5.215,0,0,0-1.608-3.937,6.329,6.329,0,0,0-4.582-1.544H14.567v9.493a2,2,0,0,0,.975,1.81,5.063,5.063,0,0,0,2.7.608A5.557,5.557,0,0,0,22.566,27.2a7.012,7.012,0,0,0,1.456-4.772Z" transform="translate(0 0.696)" fill="#fff"/>
    <path id="Path_4287" data-name="Path 4287" d="M40.641,12.494a3.152,3.152,0,0,1-.481,1.721,1.608,1.608,0,0,1-1.468.747,2.215,2.215,0,0,1-1.62-.557,1.671,1.671,0,0,1-.557-1.266,3.987,3.987,0,0,1,.063-.759L36.7,11.7a4.2,4.2,0,0,0-2.089.721,6.177,6.177,0,0,0-2.038,2.051v10.9a2.051,2.051,0,0,0,.253,1.089,1.544,1.544,0,0,0,.81.633,5.063,5.063,0,0,0,1.266.291l1.266.139v1.266H26.3V27.519l.937-.038a3.456,3.456,0,0,0,.81-.152,1.367,1.367,0,0,0,.785-.595,2.139,2.139,0,0,0,.253-1.114V14.063a2.633,2.633,0,0,0-.278-1.152A2.3,2.3,0,0,0,28.034,12a2.6,2.6,0,0,0-.861-.329,7.6,7.6,0,0,0-1.063-.139V10.266l6.19-.418.291.253V12.76h.089a8.519,8.519,0,0,1,2.62-2.342,5.544,5.544,0,0,1,2.645-.8,2.532,2.532,0,0,1,1.949.785A2.886,2.886,0,0,1,40.641,12.494Z" transform="translate(5.127 2.328)" fill="#fff"/>
    <path id="Path_4288" data-name="Path 4288" d="M56.253,28.486q-.9.329-1.57.519a5.392,5.392,0,0,1-1.532.2,3.721,3.721,0,0,1-2.367-.7,3.2,3.2,0,0,1-1.127-2.025h-.114A9.266,9.266,0,0,1,46.9,28.575a7.43,7.43,0,0,1-3.4.721,4.823,4.823,0,0,1-3.468-1.266,4.456,4.456,0,0,1-1.354-3.38,5.759,5.759,0,0,1,.3-1.937,4.62,4.62,0,0,1,.911-1.544,4.557,4.557,0,0,1,1.266-1.013,11,11,0,0,1,1.468-.709q.861-.316,3.468-1.2a25.961,25.961,0,0,0,3.519-1.367v-1.9a8,8,0,0,0-.1-.949,3.987,3.987,0,0,0-.468-1.38,3.8,3.8,0,0,0-1.076-1.266A3.215,3.215,0,0,0,46,10.867a4.4,4.4,0,0,0-1.62.291,2.949,2.949,0,0,0-1.051.62,5.177,5.177,0,0,0,.177,1.127,5.81,5.81,0,0,1,.177,1.367,1.633,1.633,0,0,1-.595,1.266,2.354,2.354,0,0,1-1.658.557,1.557,1.557,0,0,1-1.392-.671,2.658,2.658,0,0,1,.177-3.177,6.19,6.19,0,0,1,1.608-1.43,8.734,8.734,0,0,1,2.076-.9,8.126,8.126,0,0,1,2.38-.367,15.582,15.582,0,0,1,2.785.215,5.063,5.063,0,0,1,2.152.937,4.38,4.38,0,0,1,1.43,1.949,8.152,8.152,0,0,1,.506,3.1v9.392a2.316,2.316,0,0,0,.253,1.177,2.076,2.076,0,0,0,.785.747,1.937,1.937,0,0,0,.9.19h1.266v1.266ZM49.62,18.461q-1.671.519-2.835.924a11.392,11.392,0,0,0-2.266,1.139,5.152,5.152,0,0,0-1.506,1.532,3.9,3.9,0,0,0-.557,2.1,2.975,2.975,0,0,0,.823,2.316,3.025,3.025,0,0,0,2.1.747,4.3,4.3,0,0,0,2.4-.646,6.911,6.911,0,0,0,1.734-1.557Z" transform="translate(8.465 2.31)" fill="#fff"/>
    <path id="Path_4289" data-name="Path 4289" d="M74.451,28.823H65.3V27.557l.962-.076a3.62,3.62,0,0,0,.861-.152,1.367,1.367,0,0,0,.785-.595,2.139,2.139,0,0,0,.253-1.114V16a4.544,4.544,0,0,0-.937-3.076,2.937,2.937,0,0,0-2.291-1.089,5.24,5.24,0,0,0-1.848.316,6.557,6.557,0,0,0-1.481.772,4.215,4.215,0,0,0-1,.937,8.417,8.417,0,0,0-.544.81V25.443a1.949,1.949,0,0,0,.266,1.063,1.709,1.709,0,0,0,.8.646,3.8,3.8,0,0,0,.861.291,7.7,7.7,0,0,0,.962.139v1.266H53.768V27.583l.9-.076a3.456,3.456,0,0,0,.81-.152,1.367,1.367,0,0,0,.785-.595,2.139,2.139,0,0,0,.253-1.114V14.077a2.532,2.532,0,0,0-.278-1.19A2.354,2.354,0,0,0,55.464,12a2.532,2.532,0,0,0-.861-.329,7.594,7.594,0,0,0-1.063-.139V10.267l6.228-.418.291.266v2.658h.1L61.3,11.684a9.924,9.924,0,0,1,1.266-1.038,6.81,6.81,0,0,1,1.684-.759,7.291,7.291,0,0,1,2.19-.3,4.734,4.734,0,0,1,4,1.683A7.114,7.114,0,0,1,71.7,15.735v9.747a2.19,2.19,0,0,0,.228,1.076,1.506,1.506,0,0,0,.785.633,4.987,4.987,0,0,0,.785.266,6.076,6.076,0,0,0,.924.114v1.266Z" transform="translate(12.418 2.315)" fill="#fff"/>
    <path id="Path_4290" data-name="Path 4290" d="M92.07,30.612l-6.557.418-.291-.266V29.018H85.07a7.772,7.772,0,0,1-2.443,1.81,6.785,6.785,0,0,1-2.937.658,7.063,7.063,0,0,1-3.089-.709,7.772,7.772,0,0,1-2.532-2A9.9,9.9,0,0,1,72.3,25.625a12.076,12.076,0,0,1-.658-4.063,10.645,10.645,0,0,1,.7-3.8,10.126,10.126,0,0,1,1.937-3.19,8.531,8.531,0,0,1,2.835-2.038,8.228,8.228,0,0,1,3.43-.759,10.05,10.05,0,0,1,2.532.329,9.2,9.2,0,0,1,2.177.848V6.36A3.8,3.8,0,0,0,84.982,4.9a2.228,2.228,0,0,0-.747-1,3.721,3.721,0,0,0-1.481-.519A18.734,18.734,0,0,0,80.8,3.145V1.968l7.671-.418.291.278V27.081a2.3,2.3,0,0,0,.253,1.127,2.215,2.215,0,0,0,.747.785,2.342,2.342,0,0,0,1.051.278l1.266.076v1.266ZM85.2,27.321V16.36a4.923,4.923,0,0,0-.443-1.063,4.746,4.746,0,0,0-.848-1.051,4.861,4.861,0,0,0-1.266-.785,4.392,4.392,0,0,0-1.721-.316,3.924,3.924,0,0,0-2.1.595,5.608,5.608,0,0,0-1.7,1.7,8.734,8.734,0,0,0-1.228,2.709,15.1,15.1,0,0,0-.405,3.633,12.771,12.771,0,0,0,.3,2.9,7.658,7.658,0,0,0,1.025,2.418,5.278,5.278,0,0,0,1.7,1.709,4.532,4.532,0,0,0,2.456.646,4.43,4.43,0,0,0,2.532-.671A8.126,8.126,0,0,0,85.2,27.321Z" transform="translate(17.228 0.184)" fill="#fff"/>
    <path id="Path_4291" data-name="Path 4291" d="M87.854,34.822a2.266,2.266,0,0,1,.519-1.544,1.658,1.658,0,0,1,1.266-.595,2.24,2.24,0,0,1,1.051.228,2.937,2.937,0,0,1,.785.582,4.924,4.924,0,0,1,.608.772l.519.81A7.6,7.6,0,0,0,94.866,32.4a21.634,21.634,0,0,0,1.911-3.8q-1.81-4.506-3.266-8.05T90.449,13.2a2.721,2.721,0,0,0-1.266-1.354,5.063,5.063,0,0,0-1.633-.582V10h8.544v1.266a6.1,6.1,0,0,0-1.367.241.886.886,0,0,0-.8.506,1.443,1.443,0,0,0,.089.38q.089.266.2.544.721,1.873,2.2,5.418t2.291,5.671l1.772-4.2q.924-2.177,2.063-5.139l.38-1a3.1,3.1,0,0,0,.253-1.089,1.266,1.266,0,0,0-.861-.924,5.152,5.152,0,0,0-1.646-.519V10h6.962v1.177a4.684,4.684,0,0,0-1.506.658,3.43,3.43,0,0,0-1.392,1.582q-2.266,5.228-3.962,9.531t-2.671,6.329a35.048,35.048,0,0,1-2.139,4.152,12.468,12.468,0,0,1-1.835,2.342,5.341,5.341,0,0,1-1.582,1.076,4.051,4.051,0,0,1-1.468.278,3.532,3.532,0,0,1-2.329-.709,2.063,2.063,0,0,1-.9-1.595Z" transform="translate(21.457 2.429)" fill="#fff"/>
    <path id="Path_4292" data-name="Path 4292" d="M172.315,30.441H160.4V29.087a12.664,12.664,0,0,0,1.658-.139,4.19,4.19,0,0,0,1.392-.329,2.532,2.532,0,0,0,.9-.81,2.266,2.266,0,0,0,.279-1.165V7.037h-.278L155.163,30h-.937l-8.861-23.43h-.253V22.657a16.1,16.1,0,0,0,.291,3.557,3.291,3.291,0,0,0,.9,1.747,4.367,4.367,0,0,0,1.734.759,10.4,10.4,0,0,0,1.709.38v1.354H138.86V29.087a13.923,13.923,0,0,0,1.8-.291,3.481,3.481,0,0,0,1.456-.633,2.785,2.785,0,0,0,.911-1.633,18.986,18.986,0,0,0,.253-3.683V9.075a5.658,5.658,0,0,0-.291-1.962,3.063,3.063,0,0,0-.823-1.266,3.8,3.8,0,0,0-1.443-.759,7.291,7.291,0,0,0-1.684-.253V3.48h9.19l7.721,20.253L162.594,6.8a16.7,16.7,0,0,0,.62-1.949,9.111,9.111,0,0,0,.278-1.354h8.785V4.834a9.771,9.771,0,0,0-1.354.177,8.861,8.861,0,0,0-1.266.291,1.392,1.392,0,0,0-.873.759,2.911,2.911,0,0,0-.228,1.165V26.644a2.531,2.531,0,0,0,.228,1.127,1.937,1.937,0,0,0,.873.8,4.4,4.4,0,0,0,1.266.354,10.126,10.126,0,0,0,1.392.177v1.354Z" transform="translate(35.095 0.696)" fill="#fff"/>
    <path id="Path_4293" data-name="Path 4293" d="M182.852,24.421a9.6,9.6,0,0,1-3.152,3.57,7.936,7.936,0,0,1-4.544,1.329,9.227,9.227,0,0,1-3.962-.8,7.772,7.772,0,0,1-2.734-2.164,9.2,9.2,0,0,1-1.646-3.19,13.48,13.48,0,0,1-.544-3.8,11.392,11.392,0,0,1,.582-3.582,10.126,10.126,0,0,1,1.7-3.164,8.228,8.228,0,0,1,2.683-2.177,7.747,7.747,0,0,1,3.557-.886,8.671,8.671,0,0,1,3.519.646,6.253,6.253,0,0,1,2.38,1.772,7.063,7.063,0,0,1,1.266,2.532,11,11,0,0,1,.43,3.139v1.266h-12.4a14.733,14.733,0,0,0,.354,3.354,8.025,8.025,0,0,0,1.114,2.645,5.291,5.291,0,0,0,1.949,1.658,5.974,5.974,0,0,0,2.848.633,5.253,5.253,0,0,0,2.911-.8,7.835,7.835,0,0,0,2.367-2.861Zm-4.2-7.139A15.493,15.493,0,0,0,178.472,15a6.974,6.974,0,0,0-.582-2.025,3.8,3.8,0,0,0-1.2-1.418,3.253,3.253,0,0,0-1.9-.557,4.076,4.076,0,0,0-3.354,1.646A7.721,7.721,0,0,0,170,17.257h8.658Z" transform="translate(42.38 2.312)" fill="#fff"/>
    <path id="Path_4294" data-name="Path 4294" d="M189.834,30.96h-9.139V29.694l.937-.089a4.457,4.457,0,0,0,.823-.139,1.405,1.405,0,0,0,.8-.595,2.076,2.076,0,0,0,.266-1.114V6.062a2.874,2.874,0,0,0-.291-1.266,2.531,2.531,0,0,0-.772-.937,3.911,3.911,0,0,0-1.266-.418,11.391,11.391,0,0,0-1.468-.228V1.948l7.05-.418.266.291v25.7a2.165,2.165,0,0,0,.253,1.089,1.57,1.57,0,0,0,.8.658,4.392,4.392,0,0,0,.823.291,6.026,6.026,0,0,0,.924.139Z" transform="translate(45.955 0.178)" fill="#fff"/>
    <path id="Path_4295" data-name="Path 4295" d="M208.127,11.139a4.721,4.721,0,0,0-1.62.62,3.646,3.646,0,0,0-1.266,1.646q-1.127,2.532-2.316,5.3t-2.532,5.8q-.38.873-.81,2.076t-.785,2.3h-1.481q-1.81-4.468-3.329-8.139t-3.152-7.595a2.835,2.835,0,0,0-1.266-1.354,4.949,4.949,0,0,0-1.671-.532V10h8.671v1.266a6.911,6.911,0,0,0-1.43.24.886.886,0,0,0-.861.595,1.266,1.266,0,0,0,.1.291,5.063,5.063,0,0,1,.19.544q.772,1.937,2.2,5.4t2.3,5.582L200.8,19.86q1.038-2.43,2.228-5.43l.367-.962a2.531,2.531,0,0,0,.177-.9.747.747,0,0,0-.316-.582,3.178,3.178,0,0,0-.747-.443,4.849,4.849,0,0,0-.861-.278l-.684-.139V10h7.164Z" transform="translate(48.129 2.429)" fill="#fff"/>
    <path id="Path_4296" data-name="Path 4296" d="M215.268,30.835H206.23V29.569l.9-.076a3.456,3.456,0,0,0,.81-.152,1.367,1.367,0,0,0,.785-.595,2.139,2.139,0,0,0,.253-1.114V16.088a2.278,2.278,0,0,0-.278-1.114,2.456,2.456,0,0,0-.772-.848,3.519,3.519,0,0,0-1.051-.392,7.771,7.771,0,0,0-1.266-.2V12.266l6.607-.418.291.278V27.417a2.165,2.165,0,0,0,.253,1.1,1.506,1.506,0,0,0,.8.646,6.415,6.415,0,0,0,.81.278,4.974,4.974,0,0,0,.886.139v1.266Zm-2.38-26.3a2.772,2.772,0,0,1-.709,1.886,2.253,2.253,0,0,1-1.759.81,2.215,2.215,0,0,1-1.683-.772,2.532,2.532,0,0,1-.709-1.759,2.62,2.62,0,0,1,.709-1.823A2.2,2.2,0,0,1,210.42,2a2.342,2.342,0,0,1,1.772.734A2.392,2.392,0,0,1,212.888,4.532Z" transform="translate(52.836 0.303)" fill="#fff"/>
    <path id="Path_4297" data-name="Path 4297" d="M223.814,30.96h-9.139V29.694l.937-.089a4.456,4.456,0,0,0,.823-.139,1.405,1.405,0,0,0,.8-.595,2.075,2.075,0,0,0,.266-1.114V6.062a2.874,2.874,0,0,0-.291-1.266,2.532,2.532,0,0,0-.772-.937,3.911,3.911,0,0,0-1.266-.418,11.392,11.392,0,0,0-1.468-.228V1.948l7.05-.418.266.291v25.7a2.165,2.165,0,0,0,.253,1.089,1.569,1.569,0,0,0,.8.658,4.392,4.392,0,0,0,.823.291,6.025,6.025,0,0,0,.924.139V30.96Z" transform="translate(54.986 0.178)" fill="#fff"/>
    <path id="Path_4298" data-name="Path 4298" d="M232.293,30.96H223.2V29.694l.937-.089a4.456,4.456,0,0,0,.823-.139,1.405,1.405,0,0,0,.8-.595,2.075,2.075,0,0,0,.266-1.114V6.062a2.874,2.874,0,0,0-.291-1.266,2.532,2.532,0,0,0-.772-.937,3.911,3.911,0,0,0-1.266-.418,11.391,11.391,0,0,0-1.468-.228V1.948l7.05-.418.253.3v25.7a2.165,2.165,0,0,0,.253,1.089,1.57,1.57,0,0,0,.8.658,4.393,4.393,0,0,0,.823.291,6.024,6.024,0,0,0,.924.139v1.266Z" transform="translate(57.253 0.178)" fill="#fff"/>
    <path id="Path_4299" data-name="Path 4299" d="M248.375,24.408a9.6,9.6,0,0,1-3.152,3.57,7.937,7.937,0,0,1-4.544,1.329,9.228,9.228,0,0,1-3.962-.8,7.772,7.772,0,0,1-2.8-2.164,9.2,9.2,0,0,1-1.646-3.19,13.48,13.48,0,0,1-.544-3.8,11.393,11.393,0,0,1,.582-3.582,10.126,10.126,0,0,1,1.7-3.164,8.228,8.228,0,0,1,2.683-2.177,7.747,7.747,0,0,1,3.595-.823,8.671,8.671,0,0,1,3.519.646,6.253,6.253,0,0,1,2.38,1.772,7.063,7.063,0,0,1,1.266,2.532,11,11,0,0,1,.43,3.139v1.266h-12.4a14.733,14.733,0,0,0,.354,3.354,8.025,8.025,0,0,0,1.114,2.645,5.291,5.291,0,0,0,1.975,1.595,5.975,5.975,0,0,0,2.848.633,5.253,5.253,0,0,0,2.911-.8,7.835,7.835,0,0,0,2.367-2.861Zm-4.2-7.139A15.488,15.488,0,0,0,244,14.99a6.974,6.974,0,0,0-.582-2.025,3.8,3.8,0,0,0-1.2-1.418A3.253,3.253,0,0,0,240.249,11a4.076,4.076,0,0,0-3.3,1.633,7.721,7.721,0,0,0-1.43,4.607h8.658Z" transform="translate(59.778 2.325)" fill="#fff"/>
    <path id="Path_4300" data-name="Path 4300" d="M122.768,2.7a9.962,9.962,0,0,1,2,2.063,11.658,11.658,0,0,1,2.911-2.633,7.823,7.823,0,0,1,7.291-.658,10.443,10.443,0,0,1,5.063,4.253,12.481,12.481,0,0,1,1.835,6.607,17.721,17.721,0,0,1-2.911,8.012,40.366,40.366,0,0,1-9.911,9.519c-2.013,1.418-4.253,2.9-4.253,2.9s-2.532-1.886-4.367-3.418a87.441,87.441,0,0,1-9.582-9,13.152,13.152,0,0,1-2.709-10.658,11.747,11.747,0,0,1,4.582-7.114,9.519,9.519,0,0,1,5.7-1.532,9.9,9.9,0,0,1,4.354,1.595" transform="translate(26.87 0)" fill="#fff"/>
  </g>
</svg>
