<svg xmlns="http://www.w3.org/2000/svg" xmlns:xlink="http://www.w3.org/1999/xlink" width="35" height="35" viewBox="0 0 35 35">
  <defs>
    <clipPath id="clip-path">
      <rect id="Rectangle_1285" data-name="Rectangle 1285" width="17.441" height="11.818" transform="translate(0 0)" fill="#fff"/>
    </clipPath>
  </defs>
  <g id="Group_5195" data-name="Group 5195" transform="translate(-1185 -1140)">
    <circle id="Ellipse_29" data-name="Ellipse 29" cx="17.5" cy="17.5" r="17.5" transform="translate(1220 1140) rotate(90)" fill="#20535a"/>
    <g id="Group_5139" data-name="Group 5139" transform="translate(1193.989 1151.706)" clip-path="url(#clip-path)">
      <path id="Path_4187" data-name="Path 4187" d="M0,.7V11.064L5.381,5.881C3.708,4.282,1.33,1.985,0,.7M7.93,6.907a1.274,1.274,0,0,0,.78.3,1.285,1.285,0,0,0,.9-.428c.66-.656,5.124-4.895,7.112-6.78H.717C3.973,3.148,7.552,6.592,7.93,6.907m4.058-1.02,5.453,5.253V.7c-1.366,1.3-3.8,3.607-5.453,5.185M10.346,7.464a2.3,2.3,0,0,1-1.634.726,2.278,2.278,0,0,1-1.449-.539c-.118-.1-.507-.461-1.157-1.078L.661,11.818H16.7L11.263,6.579c-.485.464-.785.755-.917.885" transform="translate(0 0)" fill="#fff"/>
    </g>
  </g>
</svg>
