<svg xmlns="http://www.w3.org/2000/svg" xmlns:xlink="http://www.w3.org/1999/xlink" width="35" height="35" viewBox="0 0 35 35">
  <defs>
    <clipPath id="clip-path">
      <rect id="Rectangle_1287" data-name="Rectangle 1287" width="19.625" height="19.625" fill="none"/>
    </clipPath>
  </defs>
  <g id="Group_5391" data-name="Group 5391" transform="translate(-1185 -1261)">
    <circle id="Ellipse_31" data-name="Ellipse 31" cx="17.5" cy="17.5" r="17.5" transform="translate(1220 1261) rotate(90)" fill="#20535a"/>
    <g id="Group_5145" data-name="Group 5145" transform="translate(1193 1269)">
      <g id="Group_5144" data-name="Group 5144" clip-path="url(#clip-path)">
        <path id="Path_4189" data-name="Path 4189" d="M2.344,5.52l-.018.032a8.569,8.569,0,0,0-1.1,3.605l0,.056h3.1l0-.05a16.575,16.575,0,0,1,.416-3.185l.013-.055-.056-.008Q3.53,5.754,2.38,5.527Zm12.54.426L14.9,6a16.586,16.586,0,0,1,.411,3.163l0,.05h3.1l0-.056a8.572,8.572,0,0,0-1.1-3.6l-.019-.033-.037.008q-1.147.241-2.308.405Zm-1.837-4.12.114.155a8.339,8.339,0,0,1,.649,1.037,11.208,11.208,0,0,1,.732,1.725l.013.041.043-.006q.94-.128,1.872-.308l.085-.016L16.5,4.385A8.649,8.649,0,0,0,13.223,1.9Zm-6.468,0L6.4,1.9A8.652,8.652,0,0,0,3.134,4.373l-.055.068.086.016q.931.17,1.87.3l.042.006.014-.041a11.169,11.169,0,0,1,.725-1.7,8.328,8.328,0,0,1,.649-1.037Zm0,15.975-.114-.154a8.335,8.335,0,0,1-.649-1.037,11.15,11.15,0,0,1-.721-1.692l-.014-.041-.043.007q-.922.142-1.836.333l-.084.018.055.066q.261.315.55.6A8.634,8.634,0,0,0,6.4,17.724Zm6.468,0,.176-.076A8.634,8.634,0,0,0,15.9,15.9q.294-.294.559-.616l.054-.066-.083-.018Q15.52,15,14.6,14.86l-.043-.007-.014.041a11.207,11.207,0,0,1-.728,1.713,8.34,8.34,0,0,1-.649,1.037Zm1.834-4.108.055.009q1.146.183,2.277.451l.037.009.019-.033a8.575,8.575,0,0,0,1.133-3.66l0-.056h-3.1l0,.05a16.576,16.576,0,0,1-.414,3.177Zm-12.5.473.037-.008q1.132-.254,2.279-.435l.055-.009-.013-.054a16.577,16.577,0,0,1-.419-3.2l0-.05H1.22l0,.056A8.574,8.574,0,0,0,2.36,14.133ZM9.271,5.082V1.27l-.067.02a4.474,4.474,0,0,0-2.334,2.29,9.7,9.7,0,0,0-.556,1.26L6.293,4.9l.066.006q1.425.142,2.859.173Zm-3.328.987-.011.044a15.3,15.3,0,0,0-.415,3.046l0,.054H9.271V6.279H9.22q-1.619-.032-3.232-.2Zm3.328,7.242v-2.9H5.516l0,.054A15.292,15.292,0,0,0,5.931,13.5l.011.045.046-.005q1.61-.193,3.233-.23Zm0,5.044V14.508H9.218q-1.435.033-2.864.2l-.065.007.022.062a9.711,9.711,0,0,0,.559,1.271A4.474,4.474,0,0,0,9.2,18.336Zm1.2-3.849v3.816l.069-.025a4.613,4.613,0,0,0,2.215-2.251,9.751,9.751,0,0,0,.567-1.291l.022-.062-.065-.007q-1.373-.152-2.755-.178Zm3.219-.979.011-.045a15.3,15.3,0,0,0,.408-3.017l0-.054H10.47v2.9h.051q1.565.029,3.122.212Zm0-7.436-.045,0q-1.555.161-3.121.185H10.47V9.213h3.64l0-.054a15.3,15.3,0,0,0-.41-3.024ZM13.34,4.924l-.022-.063a9.735,9.735,0,0,0-.563-1.282,4.612,4.612,0,0,0-2.215-2.251L10.47,1.3V5.085h.053q1.378-.023,2.751-.154ZM9.813,0A9.812,9.812,0,1,1,2.874,2.874,9.785,9.785,0,0,1,9.813,0" transform="translate(0 0)" fill="#fff" fill-rule="evenodd"/>
      </g>
    </g>
  </g>
</svg>
