<svg xmlns="http://www.w3.org/2000/svg" xmlns:xlink="http://www.w3.org/1999/xlink" width="33" height="33" viewBox="0 0 33 33">
  <defs>
    <clipPath id="clip-path">
      <rect id="Rectangle_1058" data-name="Rectangle 1058" width="15.34" height="17.212" fill="#20535a"/>
    </clipPath>
  </defs>
  <g id="Group_4548" data-name="Group 4548" transform="translate(-432 -1336.029)">
    <g id="Ellipse_10" data-name="Ellipse 10" transform="translate(465 1336.029) rotate(90)" fill="none" stroke="#20535a" stroke-width="0.5">
      <circle cx="16.5" cy="16.5" r="16.5" stroke="none"/>
      <circle cx="16.5" cy="16.5" r="16.25" fill="none"/>
    </g>
    <g id="Group_4553" data-name="Group 4553" transform="translate(441 1344.029)">
      <g id="Group_4552" data-name="Group 4552" clip-path="url(#clip-path)">
        <path id="Path_4030" data-name="Path 4030" d="M15.339,5.074a.185.185,0,0,0,0-.032h0a.175.175,0,0,0-.009-.03l0-.008a.18.18,0,0,0-.011-.021l0-.008a.182.182,0,0,0-.02-.025l-4.9-4.9a.179.179,0,0,0-.025-.02l-.008,0-.02-.011-.009,0L10.3,0h0l-.031,0H2.758A1.284,1.284,0,0,0,1.475,1.283v9.16H.724A.726.726,0,0,0,0,11.167v3.7a.726.726,0,0,0,.725.725h.752v.338a1.284,1.284,0,0,0,1.283,1.283h11.3a1.284,1.284,0,0,0,1.283-1.283V5.077s0,0,0,0m-.36,10.856a.924.924,0,0,1-.923.923H2.758a.924.924,0,0,1-.922-.923v-.338H12.454a.726.726,0,0,0,.725-.725v-3.7a.726.726,0,0,0-.725-.725H1.836V1.283A.924.924,0,0,1,2.758.36h7.324V5.077a.18.18,0,0,0,.18.18h4.717ZM.359,14.867v-3.7A.365.365,0,0,1,.724,10.8h11.73a.365.365,0,0,1,.365.365v3.7a.365.365,0,0,1-.365.365H.724a.365.365,0,0,1-.365-.365M10.442,4.9V.615L14.724,4.9Z" transform="translate(0.001)" fill="#20535a"/>
        <path id="Path_4031" data-name="Path 4031" d="M71.953,267.761h.539a.8.8,0,0,0,.915-.8.8.8,0,0,0-.9-.786H71.466v2.593h.487Zm0-1.2h.5c.26,0,.461.12.461.4s-.181.4-.474.4h-.487Z" transform="translate(-68.319 -254.449)" fill="#20535a"/>
        <path id="Path_4032" data-name="Path 4032" d="M127.845,267.436a1.178,1.178,0,0,0-1.239-1.266h-.993v2.593h.974a1.228,1.228,0,0,0,1.259-1.327m-1.746.929v-1.8h.465a.771.771,0,0,1,.777.872c0,.533-.244.926-.78.926Z" transform="translate(-120.081 -254.449)" fill="#20535a"/>
        <path id="Path_4033" data-name="Path 4033" d="M188.323,267.682h1.2v-.4h-1.2v-.706h1.285v-.4h-1.76v2.593h.476Z" transform="translate(-179.575 -254.449)" fill="#20535a"/>
      </g>
    </g>
  </g>
</svg>
