<svg xmlns="http://www.w3.org/2000/svg" xmlns:xlink="http://www.w3.org/1999/xlink" width="9.115" height="16.625" viewBox="0 0 9.115 16.625">
  <defs>
    <clipPath id="clip-path">
      <rect id="Rectangle_1290" data-name="Rectangle 1290" width="9.115" height="16.625" transform="translate(0 0)" fill="#20535a"/>
    </clipPath>
  </defs>
  <g id="Group_5151" data-name="Group 5151" transform="translate(0 0.002)">
    <g id="Group_5150" data-name="Group 5150" transform="translate(0 -0.002)" clip-path="url(#clip-path)">
      <path id="Path_4190" data-name="Path 4190" d="M365.415,2.181l-.24-.119.1-.209a.574.574,0,0,0-.092-.649c-.038-.041-.08-.083-.126-.125L365.249.7a.449.449,0,0,0-.2-.6l-.114-.057a.449.449,0,0,0-.6.2l-.187.376c-.061-.011-.12-.019-.175-.025a.574.574,0,0,0-.573.317L360.164,7.4l1.884.938,2.912-5.848.24.119a.261.261,0,0,1,.117.35L363.15,7.316a.242.242,0,0,0,.433.216l2.167-4.352a.745.745,0,0,0-.335-1" transform="translate(-356.713 0.002)" fill="#20535a"/>
      <path id="Path_4191" data-name="Path 4191" d="M46.151,832.3a9.017,9.017,0,0,0-.585,1.489l1.329.662a9.016,9.016,0,0,0,.836-1.365l2.359-4.737-1.58-.787Z" transform="translate(-45.129 -819.631)" fill="#20535a"/>
      <path id="Path_4192" data-name="Path 4192" d="M0,1518.083a.073.073,0,0,0,.123.061s.976-.988,1.4-1.487l-1.188-.591c-.139.643-.34,2.017-.34,2.017" transform="translate(0 -1501.54)" fill="#20535a"/>
    </g>
  </g>
</svg>
