<svg xmlns="http://www.w3.org/2000/svg" width="33.952" height="31.898" viewBox="0 0 33.952 31.898">
  <path id="Path_4300" data-name="Path 4300" d="M122.768,2.7a9.962,9.962,0,0,1,2,2.063,11.658,11.658,0,0,1,2.911-2.633,7.823,7.823,0,0,1,7.291-.658,10.443,10.443,0,0,1,5.063,4.253,12.481,12.481,0,0,1,1.835,6.607,17.721,17.721,0,0,1-2.911,8.012,40.366,40.366,0,0,1-9.911,9.519c-2.013,1.418-4.253,2.9-4.253,2.9s-2.532-1.886-4.367-3.418a87.441,87.441,0,0,1-9.582-9,13.152,13.152,0,0,1-2.709-10.658,11.747,11.747,0,0,1,4.582-7.114,9.519,9.519,0,0,1,5.7-1.532,9.9,9.9,0,0,1,4.354,1.595" transform="translate(-107.917 -0.86)" fill="#fff"/>
</svg>
