<svg xmlns="http://www.w3.org/2000/svg" width="46" height="46" viewBox="0 0 46 46">
  <g id="Group_5391" data-name="Group 5391" transform="translate(-564 -11975.223)">
    <circle id="Ellipse_20" data-name="Ellipse 20" cx="23" cy="23" r="23" transform="translate(610 11975.223) rotate(90)" fill="#fff"/>
    <g id="Group_4293" data-name="Group 4293" transform="translate(575.019 11986.741)">
      <path id="XMLID_17_" d="M16.824,0H7.139A7.147,7.147,0,0,0,0,7.139v9.686a7.147,7.147,0,0,0,7.139,7.139h9.686a7.147,7.147,0,0,0,7.139-7.139V7.139A7.147,7.147,0,0,0,16.824,0Zm4.728,16.824a4.728,4.728,0,0,1-4.728,4.728H7.139a4.728,4.728,0,0,1-4.728-4.728V7.139A4.728,4.728,0,0,1,7.139,2.411h9.686a4.728,4.728,0,0,1,4.728,4.728v9.686Z" fill="#20535a"/>
      <path id="XMLID_81_" d="M139.2,133a6.2,6.2,0,1,0,6.2,6.2A6.2,6.2,0,0,0,139.2,133Zm0,9.985a3.787,3.787,0,1,1,3.787-3.787A3.787,3.787,0,0,1,139.2,142.985Z" transform="translate(-127.216 -127.216)" fill="#20535a"/>
      <circle id="XMLID_83_" cx="1.485" cy="1.485" r="1.485" transform="translate(16.706 4.345)" fill="#20535a"/>
    </g>
  </g>
</svg>
