<svg id="Group_4293" data-name="Group 4293" xmlns="http://www.w3.org/2000/svg" width="18.111" height="18.111" viewBox="0 0 18.111 18.111">
  <path id="XMLID_17_" d="M12.716,0H5.4A5.4,5.4,0,0,0,0,5.4v7.32a5.4,5.4,0,0,0,5.4,5.4h7.32a5.4,5.4,0,0,0,5.4-5.4V5.4A5.4,5.4,0,0,0,12.716,0Zm3.573,12.716a3.573,3.573,0,0,1-3.573,3.573H5.4a3.573,3.573,0,0,1-3.573-3.573V5.4A3.573,3.573,0,0,1,5.4,1.822h7.32A3.573,3.573,0,0,1,16.289,5.4v7.32Z" fill="#fff"/>
  <path id="XMLID_81_" d="M137.684,133a4.684,4.684,0,1,0,4.684,4.684A4.689,4.689,0,0,0,137.684,133Zm0,7.546a2.862,2.862,0,1,1,2.862-2.862A2.862,2.862,0,0,1,137.684,140.546Z" transform="translate(-128.629 -128.629)" fill="#fff"/>
  <circle id="XMLID_83_" cx="1.122" cy="1.122" r="1.122" transform="translate(12.626 3.284)" fill="#fff"/>
</svg>
